<mxfile host="app.diagrams.net" modified="2023-11-09T09:57:58.052Z" agent="Mozilla/5.0 (X11; Linux x86_64) AppleWebKit/537.36 (KHTML, like Gecko) Chrome/117.0.0.0 Safari/537.36" etag="w5T_LutVBREnjC3AoGJk" version="22.1.0" type="device">
  <diagram name="Page-1" id="kZ8fsL1VzSeyfwweAmnW">
    <mxGraphModel dx="880" dy="486" grid="1" gridSize="10" guides="1" tooltips="1" connect="1" arrows="1" fold="1" page="1" pageScale="1" pageWidth="1100" pageHeight="850" math="0" shadow="0">
      <root>
        <mxCell id="0" />
        <mxCell id="1" parent="0" />
        <mxCell id="Hp6nx-xUoh-FpmTsGtWV-1" value="Student (0xAF09)" style="swimlane;fontStyle=0;childLayout=stackLayout;horizontal=1;startSize=30;horizontalStack=0;resizeParent=1;resizeParentMax=0;resizeLast=0;collapsible=1;marginBottom=0;whiteSpace=wrap;html=1;fontFamily=Ubuntu;fontSource=https%3A%2F%2Ffonts.googleapis.com%2Fcss%3Ffamily%3DUbuntu;fontSize=20;" vertex="1" parent="1">
          <mxGeometry x="80" y="156" width="280" height="90" as="geometry" />
        </mxCell>
        <mxCell id="Hp6nx-xUoh-FpmTsGtWV-2" value="prototype = 0xAF10" style="text;strokeColor=none;fillColor=none;align=left;verticalAlign=middle;spacingLeft=4;spacingRight=4;overflow=hidden;points=[[0,0.5],[1,0.5]];portConstraint=eastwest;rotatable=0;whiteSpace=wrap;html=1;fontFamily=Ubuntu;fontSource=https%3A%2F%2Ffonts.googleapis.com%2Fcss%3Ffamily%3DUbuntu;fontSize=20;" vertex="1" parent="Hp6nx-xUoh-FpmTsGtWV-1">
          <mxGeometry y="30" width="280" height="30" as="geometry" />
        </mxCell>
        <mxCell id="Hp6nx-xUoh-FpmTsGtWV-3" value="__proto__ = 0xAF11" style="text;strokeColor=none;fillColor=none;align=left;verticalAlign=middle;spacingLeft=4;spacingRight=4;overflow=hidden;points=[[0,0.5],[1,0.5]];portConstraint=eastwest;rotatable=0;whiteSpace=wrap;html=1;fontFamily=Ubuntu;fontSource=https%3A%2F%2Ffonts.googleapis.com%2Fcss%3Ffamily%3DUbuntu;fontSize=20;" vertex="1" parent="Hp6nx-xUoh-FpmTsGtWV-1">
          <mxGeometry y="60" width="280" height="30" as="geometry" />
        </mxCell>
        <mxCell id="Hp6nx-xUoh-FpmTsGtWV-29" value="0xAF10" style="swimlane;fontStyle=0;childLayout=stackLayout;horizontal=1;startSize=30;horizontalStack=0;resizeParent=1;resizeParentMax=0;resizeLast=0;collapsible=1;marginBottom=0;whiteSpace=wrap;html=1;fontFamily=Ubuntu;fontSource=https%3A%2F%2Ffonts.googleapis.com%2Fcss%3Ffamily%3DUbuntu;fontSize=20;fillColor=#d5e8d4;strokeColor=#82b366;" vertex="1" parent="1">
          <mxGeometry x="480" y="157" width="280" height="90" as="geometry" />
        </mxCell>
        <mxCell id="Hp6nx-xUoh-FpmTsGtWV-30" value="constructor = 0xAF09" style="text;strokeColor=none;fillColor=none;align=left;verticalAlign=middle;spacingLeft=4;spacingRight=4;overflow=hidden;points=[[0,0.5],[1,0.5]];portConstraint=eastwest;rotatable=0;whiteSpace=wrap;html=1;fontFamily=Ubuntu;fontSource=https%3A%2F%2Ffonts.googleapis.com%2Fcss%3Ffamily%3DUbuntu;fontSize=20;" vertex="1" parent="Hp6nx-xUoh-FpmTsGtWV-29">
          <mxGeometry y="30" width="280" height="30" as="geometry" />
        </mxCell>
        <mxCell id="Hp6nx-xUoh-FpmTsGtWV-31" value="__proto__ = 0xAF12" style="text;strokeColor=none;fillColor=none;align=left;verticalAlign=middle;spacingLeft=4;spacingRight=4;overflow=hidden;points=[[0,0.5],[1,0.5]];portConstraint=eastwest;rotatable=0;whiteSpace=wrap;html=1;fontFamily=Ubuntu;fontSource=https%3A%2F%2Ffonts.googleapis.com%2Fcss%3Ffamily%3DUbuntu;fontSize=20;" vertex="1" parent="Hp6nx-xUoh-FpmTsGtWV-29">
          <mxGeometry y="60" width="280" height="30" as="geometry" />
        </mxCell>
        <mxCell id="Hp6nx-xUoh-FpmTsGtWV-33" value="0xAF11" style="swimlane;fontStyle=0;childLayout=stackLayout;horizontal=1;startSize=30;horizontalStack=0;resizeParent=1;resizeParentMax=0;resizeLast=0;collapsible=1;marginBottom=0;whiteSpace=wrap;html=1;fontFamily=Ubuntu;fontSource=https%3A%2F%2Ffonts.googleapis.com%2Fcss%3Ffamily%3DUbuntu;fontSize=20;fillColor=#d5e8d4;strokeColor=#82b366;" vertex="1" parent="1">
          <mxGeometry x="480" y="280" width="280" height="90" as="geometry" />
        </mxCell>
        <mxCell id="Hp6nx-xUoh-FpmTsGtWV-34" value="constructor = 0xAF08" style="text;strokeColor=none;fillColor=none;align=left;verticalAlign=middle;spacingLeft=4;spacingRight=4;overflow=hidden;points=[[0,0.5],[1,0.5]];portConstraint=eastwest;rotatable=0;whiteSpace=wrap;html=1;fontFamily=Ubuntu;fontSource=https%3A%2F%2Ffonts.googleapis.com%2Fcss%3Ffamily%3DUbuntu;fontSize=20;" vertex="1" parent="Hp6nx-xUoh-FpmTsGtWV-33">
          <mxGeometry y="30" width="280" height="30" as="geometry" />
        </mxCell>
        <mxCell id="Hp6nx-xUoh-FpmTsGtWV-35" value="__proto__ = 0xAF12" style="text;strokeColor=none;fillColor=none;align=left;verticalAlign=middle;spacingLeft=4;spacingRight=4;overflow=hidden;points=[[0,0.5],[1,0.5]];portConstraint=eastwest;rotatable=0;whiteSpace=wrap;html=1;fontFamily=Ubuntu;fontSource=https%3A%2F%2Ffonts.googleapis.com%2Fcss%3Ffamily%3DUbuntu;fontSize=20;" vertex="1" parent="Hp6nx-xUoh-FpmTsGtWV-33">
          <mxGeometry y="60" width="280" height="30" as="geometry" />
        </mxCell>
        <mxCell id="Hp6nx-xUoh-FpmTsGtWV-37" value="Function (0xAF08)" style="swimlane;fontStyle=0;childLayout=stackLayout;horizontal=1;startSize=30;horizontalStack=0;resizeParent=1;resizeParentMax=0;resizeLast=0;collapsible=1;marginBottom=0;whiteSpace=wrap;html=1;fontFamily=Ubuntu;fontSource=https%3A%2F%2Ffonts.googleapis.com%2Fcss%3Ffamily%3DUbuntu;fontSize=20;" vertex="1" parent="1">
          <mxGeometry x="80" y="280" width="280" height="90" as="geometry" />
        </mxCell>
        <mxCell id="Hp6nx-xUoh-FpmTsGtWV-38" value="prototype = 0xAF11" style="text;strokeColor=none;fillColor=none;align=left;verticalAlign=middle;spacingLeft=4;spacingRight=4;overflow=hidden;points=[[0,0.5],[1,0.5]];portConstraint=eastwest;rotatable=0;whiteSpace=wrap;html=1;fontFamily=Ubuntu;fontSource=https%3A%2F%2Ffonts.googleapis.com%2Fcss%3Ffamily%3DUbuntu;fontSize=20;" vertex="1" parent="Hp6nx-xUoh-FpmTsGtWV-37">
          <mxGeometry y="30" width="280" height="30" as="geometry" />
        </mxCell>
        <mxCell id="Hp6nx-xUoh-FpmTsGtWV-39" value="__proto__ = 0xAF11" style="text;strokeColor=none;fillColor=none;align=left;verticalAlign=middle;spacingLeft=4;spacingRight=4;overflow=hidden;points=[[0,0.5],[1,0.5]];portConstraint=eastwest;rotatable=0;whiteSpace=wrap;html=1;fontFamily=Ubuntu;fontSource=https%3A%2F%2Ffonts.googleapis.com%2Fcss%3Ffamily%3DUbuntu;fontSize=20;" vertex="1" parent="Hp6nx-xUoh-FpmTsGtWV-37">
          <mxGeometry y="60" width="280" height="30" as="geometry" />
        </mxCell>
        <mxCell id="Hp6nx-xUoh-FpmTsGtWV-41" value="0xAF12" style="swimlane;fontStyle=0;childLayout=stackLayout;horizontal=1;startSize=30;horizontalStack=0;resizeParent=1;resizeParentMax=0;resizeLast=0;collapsible=1;marginBottom=0;whiteSpace=wrap;html=1;fontFamily=Ubuntu;fontSource=https%3A%2F%2Ffonts.googleapis.com%2Fcss%3Ffamily%3DUbuntu;fontSize=20;fillColor=#d5e8d4;strokeColor=#82b366;" vertex="1" parent="1">
          <mxGeometry x="480" y="409" width="280" height="90" as="geometry" />
        </mxCell>
        <mxCell id="Hp6nx-xUoh-FpmTsGtWV-42" value="constructor = 0xAF07" style="text;strokeColor=none;fillColor=none;align=left;verticalAlign=middle;spacingLeft=4;spacingRight=4;overflow=hidden;points=[[0,0.5],[1,0.5]];portConstraint=eastwest;rotatable=0;whiteSpace=wrap;html=1;fontFamily=Ubuntu;fontSource=https%3A%2F%2Ffonts.googleapis.com%2Fcss%3Ffamily%3DUbuntu;fontSize=20;" vertex="1" parent="Hp6nx-xUoh-FpmTsGtWV-41">
          <mxGeometry y="30" width="280" height="30" as="geometry" />
        </mxCell>
        <mxCell id="Hp6nx-xUoh-FpmTsGtWV-43" value="__proto__ = null" style="text;strokeColor=none;fillColor=none;align=left;verticalAlign=middle;spacingLeft=4;spacingRight=4;overflow=hidden;points=[[0,0.5],[1,0.5]];portConstraint=eastwest;rotatable=0;whiteSpace=wrap;html=1;fontFamily=Ubuntu;fontSource=https%3A%2F%2Ffonts.googleapis.com%2Fcss%3Ffamily%3DUbuntu;fontSize=20;" vertex="1" parent="Hp6nx-xUoh-FpmTsGtWV-41">
          <mxGeometry y="60" width="280" height="30" as="geometry" />
        </mxCell>
        <mxCell id="Hp6nx-xUoh-FpmTsGtWV-45" value="Object (0xAF07)" style="swimlane;fontStyle=0;childLayout=stackLayout;horizontal=1;startSize=30;horizontalStack=0;resizeParent=1;resizeParentMax=0;resizeLast=0;collapsible=1;marginBottom=0;whiteSpace=wrap;html=1;fontFamily=Ubuntu;fontSource=https%3A%2F%2Ffonts.googleapis.com%2Fcss%3Ffamily%3DUbuntu;fontSize=20;" vertex="1" parent="1">
          <mxGeometry x="80" y="409" width="280" height="90" as="geometry" />
        </mxCell>
        <mxCell id="Hp6nx-xUoh-FpmTsGtWV-46" value="prototype = 0xAF12" style="text;strokeColor=none;fillColor=none;align=left;verticalAlign=middle;spacingLeft=4;spacingRight=4;overflow=hidden;points=[[0,0.5],[1,0.5]];portConstraint=eastwest;rotatable=0;whiteSpace=wrap;html=1;fontFamily=Ubuntu;fontSource=https%3A%2F%2Ffonts.googleapis.com%2Fcss%3Ffamily%3DUbuntu;fontSize=20;" vertex="1" parent="Hp6nx-xUoh-FpmTsGtWV-45">
          <mxGeometry y="30" width="280" height="30" as="geometry" />
        </mxCell>
        <mxCell id="Hp6nx-xUoh-FpmTsGtWV-47" value="__proto__ = 0xAF11" style="text;strokeColor=none;fillColor=none;align=left;verticalAlign=middle;spacingLeft=4;spacingRight=4;overflow=hidden;points=[[0,0.5],[1,0.5]];portConstraint=eastwest;rotatable=0;whiteSpace=wrap;html=1;fontFamily=Ubuntu;fontSource=https%3A%2F%2Ffonts.googleapis.com%2Fcss%3Ffamily%3DUbuntu;fontSize=20;" vertex="1" parent="Hp6nx-xUoh-FpmTsGtWV-45">
          <mxGeometry y="60" width="280" height="30" as="geometry" />
        </mxCell>
        <mxCell id="Hp6nx-xUoh-FpmTsGtWV-49" style="rounded=0;orthogonalLoop=1;jettySize=auto;html=1;entryX=-0.004;entryY=0.167;entryDx=0;entryDy=0;entryPerimeter=0;exitX=1;exitY=0.5;exitDx=0;exitDy=0;" edge="1" parent="1" source="Hp6nx-xUoh-FpmTsGtWV-2" target="Hp6nx-xUoh-FpmTsGtWV-29">
          <mxGeometry relative="1" as="geometry" />
        </mxCell>
        <mxCell id="Hp6nx-xUoh-FpmTsGtWV-50" style="rounded=0;orthogonalLoop=1;jettySize=auto;html=1;entryX=1.011;entryY=0.156;entryDx=0;entryDy=0;entryPerimeter=0;exitX=0;exitY=0.5;exitDx=0;exitDy=0;" edge="1" parent="1" source="Hp6nx-xUoh-FpmTsGtWV-30" target="Hp6nx-xUoh-FpmTsGtWV-1">
          <mxGeometry relative="1" as="geometry" />
        </mxCell>
        <mxCell id="Hp6nx-xUoh-FpmTsGtWV-51" style="rounded=0;orthogonalLoop=1;jettySize=auto;html=1;entryX=0;entryY=0.25;entryDx=0;entryDy=0;exitX=1;exitY=0.5;exitDx=0;exitDy=0;" edge="1" parent="1" source="Hp6nx-xUoh-FpmTsGtWV-38" target="Hp6nx-xUoh-FpmTsGtWV-33">
          <mxGeometry relative="1" as="geometry" />
        </mxCell>
        <mxCell id="Hp6nx-xUoh-FpmTsGtWV-52" style="rounded=0;orthogonalLoop=1;jettySize=auto;html=1;exitX=0;exitY=0.5;exitDx=0;exitDy=0;entryX=1.007;entryY=0.167;entryDx=0;entryDy=0;entryPerimeter=0;" edge="1" parent="1" source="Hp6nx-xUoh-FpmTsGtWV-34" target="Hp6nx-xUoh-FpmTsGtWV-37">
          <mxGeometry relative="1" as="geometry" />
        </mxCell>
        <mxCell id="Hp6nx-xUoh-FpmTsGtWV-53" style="rounded=0;orthogonalLoop=1;jettySize=auto;html=1;entryX=-0.004;entryY=0.178;entryDx=0;entryDy=0;entryPerimeter=0;exitX=1;exitY=0.5;exitDx=0;exitDy=0;" edge="1" parent="1" source="Hp6nx-xUoh-FpmTsGtWV-46" target="Hp6nx-xUoh-FpmTsGtWV-41">
          <mxGeometry relative="1" as="geometry" />
        </mxCell>
        <mxCell id="Hp6nx-xUoh-FpmTsGtWV-54" style="rounded=0;orthogonalLoop=1;jettySize=auto;html=1;entryX=0.993;entryY=0.133;entryDx=0;entryDy=0;entryPerimeter=0;exitX=0;exitY=0.5;exitDx=0;exitDy=0;" edge="1" parent="1" source="Hp6nx-xUoh-FpmTsGtWV-42" target="Hp6nx-xUoh-FpmTsGtWV-45">
          <mxGeometry relative="1" as="geometry" />
        </mxCell>
        <mxCell id="Hp6nx-xUoh-FpmTsGtWV-55" style="rounded=0;orthogonalLoop=1;jettySize=auto;html=1;entryX=0;entryY=0.25;entryDx=0;entryDy=0;strokeWidth=5;fillColor=#e1d5e7;strokeColor=#9673a6;exitX=1;exitY=0.5;exitDx=0;exitDy=0;" edge="1" parent="1" source="Hp6nx-xUoh-FpmTsGtWV-3" target="Hp6nx-xUoh-FpmTsGtWV-33">
          <mxGeometry relative="1" as="geometry" />
        </mxCell>
        <mxCell id="Hp6nx-xUoh-FpmTsGtWV-56" style="rounded=0;orthogonalLoop=1;jettySize=auto;html=1;entryX=0;entryY=0.25;entryDx=0;entryDy=0;exitX=1.011;exitY=0.3;exitDx=0;exitDy=0;exitPerimeter=0;strokeWidth=5;fillColor=#e1d5e7;strokeColor=#9673a6;" edge="1" parent="1" source="Hp6nx-xUoh-FpmTsGtWV-47" target="Hp6nx-xUoh-FpmTsGtWV-33">
          <mxGeometry relative="1" as="geometry" />
        </mxCell>
        <mxCell id="Hp6nx-xUoh-FpmTsGtWV-57" style="edgeStyle=orthogonalEdgeStyle;rounded=0;orthogonalLoop=1;jettySize=auto;html=1;entryX=1;entryY=0.25;entryDx=0;entryDy=0;fillColor=#e1d5e7;strokeColor=#9673a6;strokeWidth=5;" edge="1" parent="1" source="Hp6nx-xUoh-FpmTsGtWV-31" target="Hp6nx-xUoh-FpmTsGtWV-41">
          <mxGeometry relative="1" as="geometry">
            <Array as="points">
              <mxPoint x="800" y="232" />
              <mxPoint x="800" y="422" />
            </Array>
          </mxGeometry>
        </mxCell>
        <mxCell id="Hp6nx-xUoh-FpmTsGtWV-58" style="edgeStyle=orthogonalEdgeStyle;rounded=0;orthogonalLoop=1;jettySize=auto;html=1;entryX=1;entryY=0.25;entryDx=0;entryDy=0;fillColor=#e1d5e7;strokeColor=#9673a6;strokeWidth=5;" edge="1" parent="1" source="Hp6nx-xUoh-FpmTsGtWV-35" target="Hp6nx-xUoh-FpmTsGtWV-41">
          <mxGeometry relative="1" as="geometry">
            <Array as="points">
              <mxPoint x="780" y="355" />
              <mxPoint x="780" y="422" />
            </Array>
          </mxGeometry>
        </mxCell>
        <mxCell id="Hp6nx-xUoh-FpmTsGtWV-59" style="rounded=0;orthogonalLoop=1;jettySize=auto;html=1;entryX=0;entryY=0.25;entryDx=0;entryDy=0;fillColor=#e1d5e7;strokeColor=#9673a6;strokeWidth=5;exitX=1;exitY=0.5;exitDx=0;exitDy=0;" edge="1" parent="1" source="Hp6nx-xUoh-FpmTsGtWV-39" target="Hp6nx-xUoh-FpmTsGtWV-33">
          <mxGeometry relative="1" as="geometry" />
        </mxCell>
        <mxCell id="Hp6nx-xUoh-FpmTsGtWV-65" value="s1" style="swimlane;fontStyle=0;childLayout=stackLayout;horizontal=1;startSize=30;horizontalStack=0;resizeParent=1;resizeParentMax=0;resizeLast=0;collapsible=1;marginBottom=0;whiteSpace=wrap;html=1;fontFamily=Ubuntu;fontSource=https%3A%2F%2Ffonts.googleapis.com%2Fcss%3Ffamily%3DUbuntu;fontSize=20;" vertex="1" parent="1">
          <mxGeometry x="480" y="60" width="280" height="60" as="geometry" />
        </mxCell>
        <mxCell id="Hp6nx-xUoh-FpmTsGtWV-67" value="__proto__ = 0xAF10" style="text;strokeColor=none;fillColor=none;align=left;verticalAlign=middle;spacingLeft=4;spacingRight=4;overflow=hidden;points=[[0,0.5],[1,0.5]];portConstraint=eastwest;rotatable=0;whiteSpace=wrap;html=1;fontFamily=Ubuntu;fontSource=https%3A%2F%2Ffonts.googleapis.com%2Fcss%3Ffamily%3DUbuntu;fontSize=20;" vertex="1" parent="Hp6nx-xUoh-FpmTsGtWV-65">
          <mxGeometry y="30" width="280" height="30" as="geometry" />
        </mxCell>
        <mxCell id="Hp6nx-xUoh-FpmTsGtWV-68" style="edgeStyle=orthogonalEdgeStyle;rounded=0;orthogonalLoop=1;jettySize=auto;html=1;entryX=1;entryY=0.25;entryDx=0;entryDy=0;fillColor=#e1d5e7;strokeColor=#9673a6;strokeWidth=5;" edge="1" parent="1" source="Hp6nx-xUoh-FpmTsGtWV-67" target="Hp6nx-xUoh-FpmTsGtWV-29">
          <mxGeometry relative="1" as="geometry">
            <Array as="points">
              <mxPoint x="780" y="105" />
              <mxPoint x="780" y="180" />
            </Array>
          </mxGeometry>
        </mxCell>
        <mxCell id="Hp6nx-xUoh-FpmTsGtWV-69" value="new Student()" style="text;html=1;strokeColor=#b85450;fillColor=#f8cecc;align=center;verticalAlign=middle;whiteSpace=wrap;rounded=0;fontFamily=Ubuntu;fontSource=https%3A%2F%2Ffonts.googleapis.com%2Fcss%3Ffamily%3DUbuntu;fontSize=16;" vertex="1" parent="1">
          <mxGeometry x="520" y="30" width="180" height="30" as="geometry" />
        </mxCell>
        <mxCell id="Hp6nx-xUoh-FpmTsGtWV-70" value="new Object()" style="text;html=1;strokeColor=#b85450;fillColor=#f8cecc;align=center;verticalAlign=middle;whiteSpace=wrap;rounded=0;fontFamily=Ubuntu;fontSource=https%3A%2F%2Ffonts.googleapis.com%2Fcss%3Ffamily%3DUbuntu;fontSize=16;" vertex="1" parent="1">
          <mxGeometry x="520" y="127" width="180" height="30" as="geometry" />
        </mxCell>
        <mxCell id="Hp6nx-xUoh-FpmTsGtWV-71" value="new Object()" style="text;html=1;strokeColor=#b85450;fillColor=#f8cecc;align=center;verticalAlign=middle;whiteSpace=wrap;rounded=0;fontFamily=Ubuntu;fontSource=https%3A%2F%2Ffonts.googleapis.com%2Fcss%3Ffamily%3DUbuntu;fontSize=16;" vertex="1" parent="1">
          <mxGeometry x="530" y="250" width="180" height="30" as="geometry" />
        </mxCell>
        <mxCell id="Hp6nx-xUoh-FpmTsGtWV-72" value="new Function()" style="text;html=1;strokeColor=#b85450;fillColor=#f8cecc;align=center;verticalAlign=middle;whiteSpace=wrap;rounded=0;fontFamily=Ubuntu;fontSource=https%3A%2F%2Ffonts.googleapis.com%2Fcss%3Ffamily%3DUbuntu;fontSize=16;" vertex="1" parent="1">
          <mxGeometry x="130" y="127" width="180" height="30" as="geometry" />
        </mxCell>
        <mxCell id="Hp6nx-xUoh-FpmTsGtWV-73" value="new Function()" style="text;html=1;strokeColor=#b85450;fillColor=#f8cecc;align=center;verticalAlign=middle;whiteSpace=wrap;rounded=0;fontFamily=Ubuntu;fontSource=https%3A%2F%2Ffonts.googleapis.com%2Fcss%3Ffamily%3DUbuntu;fontSize=16;" vertex="1" parent="1">
          <mxGeometry x="130" y="380" width="180" height="30" as="geometry" />
        </mxCell>
      </root>
    </mxGraphModel>
  </diagram>
</mxfile>
